<?xml version="1.0" encoding="UTF-8" standalone="no"?>
<!-- Created with Inkscape (http://www.inkscape.org/) -->
<svg
   xmlns:svg="http://www.w3.org/2000/svg"
   xmlns="http://www.w3.org/2000/svg"
   version="1.0"
   width="1133.8583"
   height="315.35431"
   id="svg2">
  <defs
     id="defs4" />
  <g
     transform="translate(1403.7215,697.9402)"
     id="layer1">
    <path
       d="M -440.50708,-657.51166 C -448.41993,-657.51166 -502.35627,-498.51289 -502.35627,-498.51289 L -496.60917,-498.51289 C -496.60917,-498.51289 -488.69632,-518.83902 -475.02688,-519.57095 C -461.36772,-520.30289 -427.56008,-447.69263 -427.56008,-447.69263 C -427.56008,-447.69263 -423.96923,-425.19047 -396.63034,-425.19047 L -305.2963,-425.19047 L -305.2963,-431.71857 C -305.2963,-431.71857 -324.71285,-430.26458 -334.06979,-450.59071 C -343.41645,-470.92672 -434.02883,-657.51166 -440.50708,-657.51166 z M -516.02571,-583.4573 L -516.02571,-641.5475 C -516.02571,-641.5475 -544.07597,-662.59567 -582.90906,-662.59567 C -621.75085,-662.59567 -669.21844,-643.72353 -669.21844,-582.73526 C -669.21844,-524.64507 -578.59655,-513.03296 -578.59655,-481.08484 C -578.59655,-464.38873 -592.23593,-462.94464 -601.61265,-462.94464 C -632.5321,-462.94464 -662.7394,-509.40294 -662.7394,-509.40294 L -662.7394,-446.23864 C -662.7394,-446.23864 -631.81995,-419.37452 -592.97815,-419.37452 C -554.14586,-419.37452 -505.23417,-442.60862 -505.23417,-503.59689 C -505.23417,-576.19727 -598.01231,-577.65125 -598.01231,-609.59937 C -598.01231,-626.29548 -587.97328,-624.11945 -578.59655,-624.11945 C -547.66682,-624.11945 -516.02571,-583.4573 -516.02571,-583.4573 z M -849.01811,-632.83347 C -833.78588,-601.18208 -819.53247,-556.59319 -795.79393,-556.59319 C -776.37817,-556.59319 -760.55248,-655.33563 -760.55248,-655.33563 L -682.16544,-655.33563 L -682.16544,-450.59071 C -682.16544,-433.17255 -662.02724,-428.82049 -662.02724,-428.82049 L -764.87448,-428.82049 L -764.87448,-574.02123 C -764.87448,-574.02123 -824.56741,-417.93043 -830.31372,-417.93043 C -836.07032,-417.93043 -917.34555,-574.02123 -917.34555,-574.02123 L -917.34555,-448.42457 C -917.34555,-436.80257 -899.3636,-428.08855 -899.3636,-428.08855 L -945.39659,-428.08855 L -945.39659,-633.55552 C -945.39659,-647.35355 -967.69103,-656.78962 -967.69103,-656.78962 L -887.85991,-656.78962 C -887.85991,-656.78962 -861.24346,-658.2436 -849.01811,-632.83347 z M -1066.2155,-438.9786 C -1066.2155,-438.9786 -1003.6446,-433.17255 -973.43733,-477.45482 L -985.66273,-428.08855 L -1148.2123,-428.08855 L -1148.2123,-633.55552 C -1148.2123,-647.35355 -1170.5068,-656.78962 -1170.5068,-656.78962 L -985.66273,-656.78962 L -973.43733,-607.42334 C -1003.6446,-651.70561 -1066.2155,-645.89956 -1066.2155,-645.89956 L -1066.2155,-550.06509 L -1015.1483,-550.06509 C -999.33213,-550.06509 -990.69763,-576.92921 -990.69763,-576.92921 C -990.69763,-576.92921 -974.15983,-500.68892 -974.88143,-501.42086 C -987.82923,-525.37701 -1027.3832,-537.72105 -1027.3832,-537.72105 L -1066.2155,-537.72105 L -1066.2155,-438.9786 z M -1183.4443,-656.78962 L -1368.2884,-656.78962 C -1368.2884,-656.78962 -1345.994,-647.35355 -1345.994,-633.55552 L -1345.994,-428.08855 L -1242.4251,-428.08855 C -1242.4251,-428.08855 -1263.9971,-435.34859 -1263.9971,-452.05458 L -1263.9971,-537.72105 L -1225.1648,-537.72105 C -1225.1648,-537.72105 -1185.6108,-525.37701 -1172.663,-501.42086 C -1171.9414,-500.68892 -1188.4784,-576.92921 -1188.4784,-576.92921 C -1188.4784,-576.92921 -1197.1137,-550.06509 -1212.9394,-550.06509 L -1263.9971,-550.06509 L -1263.9971,-645.89956 C -1263.9971,-645.89956 -1201.4262,-651.70561 -1171.2189,-607.42334 L -1183.4443,-656.78962"
       id="path7267"
       style="fill:#9b2c39;fill-opacity:1;fill-rule:evenodd;stroke:none" />
  </g>
</svg>
